<?xml version="1.0" standalone="no"?><!DOCTYPE svg PUBLIC "-//W3C//DTD SVG 1.1//EN" "http://www.w3.org/Graphics/SVG/1.1/DTD/svg11.dtd"><svg t="1734155406181" class="icon" viewBox="0 0 1024 1024" version="1.1" xmlns="http://www.w3.org/2000/svg" p-id="1631" xmlns:xlink="http://www.w3.org/1999/xlink" width="200" height="200"><path d="M906.99 47.66H109.65c-36.54 0-66.44 29.66-66.44 65.91v790.97c0 36.25 29.9 65.91 66.44 65.91h797.34c36.54 0 66.44-29.66 66.44-65.91V113.57c0-36.25-29.9-65.91-66.44-65.91z m0 823.92c0 19.77-13.29 32.96-33.22 32.96H142.88c-19.93 0-33.22-13.19-33.22-32.96V146.53c0-19.77 13.29-32.96 33.22-32.96h730.89c19.93 0 33.22 13.19 33.22 32.96v725.05z m0 0" fill="#ffffff" p-id="1632"></path></svg>