<?xml version="1.0" standalone="no"?><!DOCTYPE svg PUBLIC "-//W3C//DTD SVG 1.1//EN" "http://www.w3.org/Graphics/SVG/1.1/DTD/svg11.dtd"><svg t="1734076436509" class="icon" viewBox="0 0 1024 1024" version="1.1" xmlns="http://www.w3.org/2000/svg" p-id="11358" xmlns:xlink="http://www.w3.org/1999/xlink" width="200" height="200"><path d="M581.4 119.5v785.1H119.5V119.5h461.9m17.1-51.2H102.4c-18.9 0-34.1 15.3-34.1 34.1v819.2c0 18.9 15.3 34.1 34.1 34.1h496.1c18.9 0 34.1-15.3 34.1-34.1V102.4c0-18.9-15.3-34.1-34.1-34.1zM904.5 756.8v143h-143v-143h143m17.1-51.2H744.4c-18.9 0-34.1 15.3-34.1 34.1v177.2c0 18.9 15.3 34.1 34.1 34.1h177.2c18.9 0 34.1-15.3 34.1-34.1V739.7c0-18.8-15.2-34.1-34.1-34.1zM904.5 438.1v143h-143v-143h143m17.1-51.2H744.4c-18.9 0-34.1 15.3-34.1 34.1v177.2c0 18.9 15.3 34.1 34.1 34.1h177.2c18.9 0 34.1-15.3 34.1-34.1V421.1c0-18.9-15.2-34.2-34.1-34.2zM904.5 119.5v143h-143v-143h143m17.1-51.2H744.4c-18.9 0-34.1 15.3-34.1 34.1v177.2c0 18.9 15.3 34.1 34.1 34.1h177.2c18.9 0 34.1-15.3 34.1-34.1V102.4c0-18.9-15.2-34.1-34.1-34.1z" fill="#ffffff" p-id="11359"></path></svg>