<?xml version="1.0" standalone="no"?><!DOCTYPE svg PUBLIC "-//W3C//DTD SVG 1.1//EN" "http://www.w3.org/Graphics/SVG/1.1/DTD/svg11.dtd"><svg t="1734155437133" class="icon" viewBox="0 0 1024 1024" version="1.1" xmlns="http://www.w3.org/2000/svg" p-id="2208" xmlns:xlink="http://www.w3.org/1999/xlink" width="200" height="200"><path d="M991.9 1004.9H473.8c-17.8 0-32.1-14.4-32.1-32.1V568.3c0-8.5 3.4-16.7 9.4-22.8 6-6 14.2-9.3 22.7-9.3h0.1l518.1 1.4c17.8 0.1 32.1 14.4 32.1 32.1v403.1c-0.1 17.8-14.5 32.1-32.2 32.1z m-486-64.2h453.8V601.8l-453.8-1.3v340.2z m-166.6 64.2H32.1c-17.8 0-32.1-14.4-32.1-32.1V51.2c0-8.6 3.4-16.8 9.5-22.8s13.9-9.3 22.9-9.3l307.1 3.1c17.6 0.2 31.8 14.5 31.8 32.1v918.5c0.1 17.8-14.3 32.1-32 32.1z m-275-64.2h242.9V86.1L64.3 83.6v857.1z m927.6-453H473.8c-17.8 0-32.1-14.4-32.1-32.1V51.2c0-8.5 3.4-16.7 9.4-22.8 6-6 14.2-9.3 22.7-9.3h0.1L992 20.5c17.8 0.1 32.1 14.4 32.1 32.1v403c-0.1 17.7-14.5 32.1-32.2 32.1z m-486-64.3h453.8V84.6l-453.8-1.3v340.1z" p-id="2209" fill="#ffffff"></path></svg>